<svg width="205" height="34" viewBox="0 0 205 34" fill="none" xmlns="http://www.w3.org/2000/svg">
<rect width="34" height="34" rx="6" fill="url(#paint0_linear_563_2094)"/>
<path d="M24.686 8L9.51163 11.988V12.5269L17.4651 12.8503V13.3892L7.2093 24.9222L7 25.4611L7.4186 26L22.0698 22.2275V21.5808L14.2209 21.2575L14.0116 20.8263L25 8.64671L24.686 8Z" fill="url(#paint1_linear_563_2094)"/>
<path d="M24.686 8L9.51163 11.988V12.5269L17.4651 12.8503V13.3892L7.2093 24.9222L7 25.4611L7.4186 26L22.0698 22.2275V21.5808L14.2209 21.2575L14.0116 20.8263L25 8.64671L24.686 8Z" fill="url(#paint2_linear_563_2094)"/>
<path d="M24.5556 26H22L24.1111 23H27L24.5556 26Z" fill="url(#paint3_linear_563_2094)"/>
<path d="M60.7682 22.5735H65.5682V25.4775H51.7202V22.8375L58.1522 14.9415C59.5922 13.1975 60.6322 11.9655 61.2722 11.2455C58.3282 11.2775 56.6802 11.2935 56.3282 11.2935H52.0562V8.38954H65.4242V11.0055L58.9442 18.9255C57.5042 20.6695 56.4642 21.9015 55.8242 22.6215C58.7682 22.5895 60.4162 22.5735 60.7682 22.5735ZM78.2184 19.5015V20.2215H68.9544C69.0664 21.2775 69.3944 22.0775 69.9384 22.6215C70.4984 23.1495 71.2424 23.4135 72.1704 23.4135C73.5464 23.4135 74.4904 22.8215 75.0024 21.6375H77.9064C77.5864 22.9015 76.9144 23.9095 75.8904 24.6615C74.8664 25.3975 73.6184 25.7655 72.1464 25.7655C70.3064 25.7655 68.8184 25.1735 67.6824 23.9895C66.5464 22.8055 65.9784 21.2375 65.9784 19.2855C65.9784 17.3335 66.5384 15.7655 67.6584 14.5815C68.7944 13.3975 70.2744 12.8055 72.0984 12.8055C73.9704 12.8055 75.4584 13.4215 76.5624 14.6535C77.6664 15.8855 78.2184 17.5015 78.2184 19.5015ZM72.0744 15.1575C70.2984 15.1575 69.2664 16.1415 68.9784 18.1095H75.1944C75.0664 17.1975 74.7304 16.4775 74.1864 15.9495C73.6424 15.4215 72.9384 15.1575 72.0744 15.1575ZM88.379 14.7975V13.0935H91.307V25.0695C91.307 26.7495 90.771 28.0695 89.699 29.0295C88.643 29.9895 87.139 30.4695 85.187 30.4695C83.459 30.4695 82.099 30.0855 81.107 29.3175C80.131 28.5495 79.595 27.4935 79.499 26.1495H82.475C82.619 27.4775 83.539 28.1415 85.235 28.1415C86.227 28.1415 86.979 27.8855 87.491 27.3735C88.019 26.8615 88.283 26.1175 88.283 25.1415V23.5815C87.387 24.8135 86.123 25.4295 84.491 25.4295C82.811 25.4295 81.459 24.8455 80.435 23.6775C79.411 22.5415 78.899 21.0215 78.899 19.1175C78.899 17.1975 79.411 15.6695 80.435 14.5335C81.443 13.3815 82.787 12.8055 84.467 12.8055C86.211 12.8055 87.515 13.4695 88.379 14.7975ZM85.163 22.9335C86.171 22.9335 86.955 22.5975 87.515 21.9255C88.075 21.2535 88.355 20.3175 88.355 19.1175C88.355 17.9175 88.075 16.9815 87.515 16.3095C86.955 15.6375 86.171 15.3015 85.163 15.3015C84.187 15.3015 83.411 15.6455 82.835 16.3335C82.275 17.0055 81.995 17.9415 81.995 19.1415C81.995 20.3255 82.275 21.2535 82.835 21.9255C83.411 22.5975 84.187 22.9335 85.163 22.9335ZM106.807 17.7255L108.199 13.0935H111.439L107.359 25.4775H104.191L102.631 20.3895C102.039 18.3095 101.687 17.0775 101.575 16.6935C101.527 16.8695 101.183 18.1015 100.543 20.3895L99.0067 25.4775H95.8387L91.7587 13.0935H94.9987L96.3907 17.7255C96.7427 18.8295 97.1507 20.2615 97.6147 22.0215C98.0627 20.2455 98.4547 18.8055 98.7907 17.7015L100.159 13.0935H103.039L104.407 17.7015C104.743 18.8055 105.135 20.2455 105.583 22.0215C105.999 20.4375 106.407 19.0055 106.807 17.7255ZM122.545 25.4775H119.521C119.377 25.2215 119.265 24.7175 119.185 23.9655C118.353 25.1655 117.025 25.7655 115.201 25.7655C113.841 25.7655 112.753 25.4375 111.937 24.7815C111.137 24.1255 110.737 23.2135 110.737 22.0455C110.737 19.7895 112.321 18.5015 115.489 18.1815L117.361 18.0135C117.985 17.9335 118.433 17.7895 118.705 17.5815C118.977 17.3575 119.113 17.0295 119.113 16.5975C119.113 16.0695 118.937 15.6855 118.585 15.4455C118.249 15.1895 117.673 15.0615 116.857 15.0615C115.977 15.0615 115.345 15.2135 114.961 15.5175C114.577 15.8055 114.353 16.3095 114.289 17.0295H111.313C111.489 14.2135 113.345 12.8055 116.881 12.8055C120.321 12.8055 122.041 14.0455 122.041 16.5255V23.1255C122.041 24.2135 122.209 24.9975 122.545 25.4775ZM115.921 23.6055C116.865 23.6055 117.633 23.3495 118.225 22.8375C118.817 22.3095 119.113 21.5575 119.113 20.5815V19.4535C118.825 19.7095 118.353 19.8775 117.697 19.9575L116.065 20.1495C115.265 20.2455 114.689 20.4375 114.337 20.7255C114.001 20.9975 113.833 21.3975 113.833 21.9255C113.833 22.4535 114.009 22.8695 114.361 23.1735C114.729 23.4615 115.249 23.6055 115.921 23.6055ZM134.687 25.8615C132.463 25.8615 130.727 25.3575 129.479 24.3495C128.231 23.3415 127.599 21.8375 127.583 19.8375H129.671C129.719 22.6375 131.391 24.0375 134.687 24.0375C136.079 24.0375 137.143 23.7655 137.879 23.2215C138.631 22.6775 139.007 21.8855 139.007 20.8455C139.007 20.0295 138.695 19.3975 138.071 18.9495C137.463 18.4855 136.391 18.0855 134.855 17.7495L133.343 17.4135C131.615 17.0135 130.319 16.4375 129.455 15.6855C128.591 14.9175 128.159 13.8455 128.159 12.4695C128.159 11.1095 128.687 10.0295 129.743 9.22954C130.799 8.41354 132.215 8.00554 133.991 8.00554C135.191 8.00554 136.231 8.14954 137.111 8.43754C138.007 8.72554 138.703 9.13354 139.199 9.66154C139.695 10.1735 140.055 10.7335 140.279 11.3415C140.519 11.9495 140.647 12.6215 140.663 13.3575H138.599C138.503 12.1415 138.103 11.2535 137.399 10.6935C136.711 10.1175 135.575 9.82954 133.991 9.82954C132.791 9.82954 131.863 10.0615 131.207 10.5255C130.567 10.9895 130.247 11.6375 130.247 12.4695C130.247 13.3015 130.527 13.9495 131.087 14.4135C131.631 14.8775 132.687 15.2855 134.255 15.6375L135.767 15.9735C137.655 16.3895 139.015 16.9895 139.847 17.7735C140.679 18.5415 141.095 19.5655 141.095 20.8455C141.095 22.3975 140.527 23.6215 139.391 24.5175C138.255 25.4135 136.687 25.8615 134.687 25.8615ZM147.608 13.0935V14.7735H145.064V22.8135C145.064 23.5175 145.536 23.8695 146.48 23.8695H147.608V25.4775C147.08 25.5255 146.624 25.5495 146.24 25.5495C144.176 25.5495 143.144 24.6935 143.144 22.9815V14.7735H141.104V13.0935H143.144V9.58954H145.064V13.0935H147.608ZM157.077 20.1015V13.0935H158.997V25.4775H157.173V23.6295C156.229 25.0535 154.933 25.7655 153.285 25.7655C151.909 25.7655 150.837 25.3895 150.069 24.6375C149.301 23.8855 148.917 22.8295 148.917 21.4695V13.0935H150.837V21.2775C150.837 23.1175 151.781 24.0375 153.669 24.0375C154.565 24.0375 155.357 23.7015 156.045 23.0295C156.733 22.3575 157.077 21.3815 157.077 20.1015ZM170.47 14.8695V8.38954H172.39V25.4775H170.566V23.5575C169.574 25.0295 168.158 25.7655 166.318 25.7655C164.574 25.7655 163.182 25.1735 162.142 23.9895C161.086 22.8055 160.558 21.2375 160.558 19.2855C160.558 17.3015 161.086 15.7255 162.142 14.5575C163.166 13.3895 164.558 12.8055 166.318 12.8055C168.094 12.8055 169.478 13.4935 170.47 14.8695ZM162.574 19.3815C162.574 20.8535 162.934 21.9975 163.654 22.8135C164.374 23.6295 165.342 24.0375 166.558 24.0375C167.774 24.0375 168.742 23.6135 169.462 22.7655C170.182 21.9335 170.542 20.7735 170.542 19.2855C170.542 17.8135 170.182 16.6535 169.462 15.8055C168.742 14.9575 167.774 14.5335 166.558 14.5335C165.358 14.5335 164.39 14.9735 163.654 15.8535C162.934 16.7175 162.574 17.8935 162.574 19.3815ZM176.516 11.2215H174.476V8.86954H176.516V11.2215ZM176.468 25.4775H174.548V13.0935H176.468V25.4775ZM188.352 23.9895C187.216 25.1735 185.776 25.7655 184.032 25.7655C182.288 25.7655 180.848 25.1735 179.712 23.9895C178.592 22.8215 178.032 21.2535 178.032 19.2855C178.032 17.3175 178.592 15.7495 179.712 14.5815C180.848 13.3975 182.288 12.8055 184.032 12.8055C185.776 12.8055 187.216 13.3975 188.352 14.5815C189.472 15.7495 190.032 17.3175 190.032 19.2855C190.032 21.2535 189.472 22.8215 188.352 23.9895ZM181.128 22.7655C181.848 23.6135 182.816 24.0375 184.032 24.0375C185.248 24.0375 186.216 23.6135 186.936 22.7655C187.656 21.9335 188.016 20.7735 188.016 19.2855C188.016 17.7815 187.656 16.6135 186.936 15.7815C186.216 14.9495 185.248 14.5335 184.032 14.5335C182.816 14.5335 181.848 14.9495 181.128 15.7815C180.408 16.6135 180.048 17.7815 180.048 19.2855C180.048 20.7735 180.408 21.9335 181.128 22.7655Z" fill="#FEFEFE"/>
<defs>
<linearGradient id="paint0_linear_563_2094" x1="17" y1="0" x2="17" y2="34" gradientUnits="userSpaceOnUse">
<stop stop-color="#FEFEFE"/>
<stop offset="1" stop-color="#BABABA"/>
</linearGradient>
<linearGradient id="paint1_linear_563_2094" x1="16" y1="8" x2="16" y2="26" gradientUnits="userSpaceOnUse">
<stop stop-color="#FEFEFE"/>
<stop offset="1" stop-color="#BABABA"/>
</linearGradient>
<linearGradient id="paint2_linear_563_2094" x1="16" y1="8" x2="16" y2="26" gradientUnits="userSpaceOnUse">
<stop stop-color="#4A4A4A"/>
<stop offset="1"/>
</linearGradient>
<linearGradient id="paint3_linear_563_2094" x1="24.5" y1="23" x2="24.5" y2="26" gradientUnits="userSpaceOnUse">
<stop stop-color="#F91626"/>
<stop offset="1" stop-color="#A80813"/>
</linearGradient>
</defs>
</svg>
